<?xml version="1.0" ?><!DOCTYPE svg  PUBLIC '-//W3C//DTD SVG 1.1//EN'  'http://www.w3.org/Graphics/SVG/1.1/DTD/svg11.dtd'><svg height="382.000" viewBox="-183.000 -218.000 384.000 382.000" width="384.000" xmlns="http://www.w3.org/2000/svg"><line fill="none" stroke="none" stroke-linecap="round" stroke-width="2.0" x1="0.0" x2="0.0" y1="0.0" y2="0.0"/><polyline fill="none" points="-100.0,-50.0 100.0,-50.0 166.66666666666669,-50.0 188.8888888888889,-50.0 170.91073345833453,-36.93810550461171 177.7777777777778,-58.072694755615125 184.64482209722107,-36.93810550461171 166.66666666666669,-50.000000000000014 112.73220037500352,-10.814316513835173 94.75404494444912,2.2475779815531087 101.62108926389242,-18.887011269450298 108.48813358333568,2.2475779815531176 90.50997815278131,-10.814316513835186 112.73220037500353,-10.814316513835168 133.33333333333343,-74.21808426684537 140.20037765277672,-95.35267351784877 147.06742197221996,-74.21808426684535 129.0892665416656,-87.27997876223367 151.31148876388784,-87.27997876223364 133.33333333333343,-74.21808426684538 153.93446629166314,-10.81431651383513 160.80151061110638,10.320272737168285 142.82335518055203,-2.741621758220033 165.04557740277423,-2.741621758219991 147.06742197221982,10.320272737168256 153.93446629166314,-10.814316513835127 100.00000000000011,-50.0000000000001 82.02184456944578,-63.06189449538842 104.24406679166798,-63.061894495388366 86.26591136111358,-50.000000000000135 93.1329556805569,-71.1345892510035 100.00000000000011,-50.0000000000001 -61.80339887498951,67.5570504584939 -115.73786516665272,106.74273394465857 -133.71602059720712,119.8046284400468 -126.84897627776378,98.67003918904342 -119.98193195832059,119.80462844004683 -137.9600873888749,106.7427339446585 -115.73786516665271,106.74273394465857 -95.13673220832268,43.338966191648495 -88.26968788887935,22.204376940645137 -81.40264356943617,43.338966191648545 -99.38079899999047,30.277071696260204" stroke="#f00" stroke-linecap="round" stroke-linejoin="round"/><polyline fill="none" points="-99.38079899999047,30.277071696260204 -77.15857677776829,30.27707169626029 -95.1367322083227,43.33896619164849 -74.53559924999317,106.74273394465871 -67.66855493054999,127.87732319566211 -85.64671036110428,114.81542870027377 -63.4244881388821,114.81542870027387 -81.40264356943652,127.87732319566206 -74.53559924999317,106.74273394465871 -128.47006554165606,67.55705045849365 -146.44822097221035,54.4951559631053 -124.22599874998818,54.495155963105404 -142.2041541805426,67.55705045849358 -135.3371098610992,46.422461207490244 -128.47006554165606,67.55705045849365 -61.803398874989526,67.557050458494 -39.581176652767354,67.55705045849412 -57.55933208332178,80.61894495388229 -50.6922877638784,59.484355702878965 -43.82524344443526,80.61894495388236 -61.803398874989526,67.55705045849399 9.521272659185342e-13,-122.65425280053589 20.601132958331114,-186.05802055354584 27.4681772777745,-207.19260980454916 34.335221597217625,-186.05802055354576 16.357066166663365,-199.11991504893413 38.57928838888553,-199.119915048934 20.601132958331103,-186.05802055354584 41.20226591666045,-122.65425280053564 48.06931023610357,-101.51966354953224 30.091154805549316,-114.58155804492063 52.31337702777148,-114.58155804492047 34.33522159721705,-101.51966354953234 41.20226591666046,-122.65425280053564 -12.732200375002265,-161.8399362867008 -30.710355805556507,-174.90183078208918 -8.488133583334346,-174.901830782089 -26.46628901388878,-161.8399362867009 -19.599244694445364,-182.97452553770418 -12.732200375002268,-161.83993628670078 53.93446629166421,-161.83993628670027 76.15668851388637,-161.8399362867001 58.17853308333193,-148.77804179131198" stroke="#f00" stroke-linecap="round" stroke-linejoin="round"/><polyline fill="none" points="58.17853308333193,-148.77804179131198 65.04557740277535,-169.91263104231527 71.91262172221843,-148.77804179131186 53.93446629166421,-161.83993628670027 8.952838470577262e-13,-122.65425280053596 -17.978155430553546,-109.59235830514785 -11.111111111110116,-130.72694755615115 -4.244066791667038,-109.59235830514774 -22.22222222222126,-122.65425280053614 8.917311333789257e-13,-122.65425280053596 61.80339887498849,67.55705045849466 82.40453183331769,130.96081821150486 89.27157615276076,152.09540746250826 71.29342072220655,139.03351296711986 93.51564294442869,139.03351296712006 75.53748751387425,152.09540746250815 82.40453183331769,130.9608182115049 28.470065541655103,91.77513472533965 10.491910111100907,78.71324022995124 32.71413233332304,78.71324022995145 14.735976902768602,91.77513472533953 21.603021222212057,70.64054547433626 28.470065541655103,91.77513472533965 95.13673220832149,91.77513472534031 117.35895443054362,91.77513472534052 99.38079899998918,104.83702922072858 106.24784331943263,83.70243996972533 113.11488763887567,104.83702922072872 95.13673220832149,91.77513472534031 41.202265916658156,130.96081821150443 23.224110486103708,144.0227127068925 30.091154805547177,122.88812345588924 36.958199124990195,144.02271270689263 18.98004369443603,130.9608182115042 41.20226591665815,130.96081821150446 61.80339887498859,67.55705045849474 68.67044319443207,46.42246120749151 75.53748751387508,67.5570504584949 57.559332083320925,54.49515596310646 79.78155430554304,54.49515596310672 61.80339887498859,67.55705045849474 -99.9999999999987,-50.00000000000122 -153.93446629166112,-89.18568348616654" stroke="#f00" stroke-linecap="round" stroke-linejoin="round"/><polyline fill="none" points="-153.93446629166112,-89.18568348616654 -171.91262172221528,-102.24757798155498 -149.69039949999316,-102.24757798155471 -167.66855493054763,-89.1856834861667 -160.80151061110413,-110.32027273716992 -153.93446629166115,-89.18568348616652 -87.26779962499484,-89.1856834861657 -65.04557740277272,-89.18568348616543 -83.02373283332717,-76.12378899077743 -76.15668851388367,-97.25837824178063 -69.2896441944407,-76.12378899077724 -87.26779962499482,-89.18568348616569 -141.2022659166582,-50.00000000000173 -159.18042134721267,-36.93810550461374 -152.31337702776915,-58.07269475561694 -145.4463327083262,-36.93810550461356 -163.42448813888032,-50.00000000000202 -141.20226591665823,-50.00000000000172 -120.60113295832764,-113.40376775301132 -113.73408863888412,-134.53835700401453 -106.86704431944116,-113.40376775301114 -124.84519974999527,-126.46566224839961 -102.62297752777317,-126.4656622483993 -120.60113295832764,-113.40376775301134 -99.99999999999883,-50.00000000000117 -93.1329556805559,-28.865410748997782 -111.11111111110999,-41.927305244386254 -88.8888888888879,-41.927305244385934 -106.86704431944237,-28.86541074899798 -99.99999999999883,-50.000000000001165" stroke="#f00" stroke-linecap="round" stroke-linejoin="round"/><line fill="none" stroke="none" stroke-linecap="round" stroke-width="2.0" x1="0.0" x2="0.0" y1="0.0" y2="0.0"/><polygon fill="#f00" fill-rule="evenodd" points="2.3901153391895296e-13,-16.0 -1.9999999999997908,-14.00000000000003 -0.9999999999998506,-10.000000000000014 -3.9999999999998956,-7.0000000000000595 -6.999999999999866,-9.000000000000105 -8.999999999999881,-8.000000000000135 -5.999999999999925,-5.00000000000009 -6.999999999999985,-1.0000000000001046 -5.000000000000044,2.9999999999999254 -8.000000000000089,5.99999999999988 -6.00000000000012,7.99999999999991 -4.000000000000075,4.9999999999999405 -1.0456754608954193e-13,7.0 3.9999999999999254,5.0000000000000595 5.99999999999988,8.000000000000089 7.99999999999991,6.00000000000012 4.999999999999956,3.0000000000000746 7.000000000000015,-0.9999999999998954 6.000000000000075,-4.99999999999991 9.000000000000119,-7.999999999999866 7.000000000000134,-8.999999999999895 4.000000000000105,-6.9999999999999405 1.0000000000001494,-9.999999999999986 2.000000000000209,-13.99999999999997" stroke="#f00" stroke-linejoin="round"/></svg>